<?xml version="1.0" standalone="no"?>
<!DOCTYPE svg PUBLIC "-//W3C//DTD SVG 20010904//EN"
 "http://www.w3.org/TR/2001/REC-SVG-20010904/DTD/svg10.dtd">
<svg version="1.0" xmlns="http://www.w3.org/2000/svg"
 width="300.000000pt" height="300.000000pt" viewBox="0 0 300.000000 300.000000"
 preserveAspectRatio="xMidYMid meet">
<metadata>
Created by potrace 1.11, written by Peter Selinger 2001-2013
</metadata>
<g transform="translate(0.000000,300.000000) scale(0.100000,-0.100000)"
fill="#000000" stroke="none">
<path d="M870 2855 c-15 -18 2 -45 30 -45 23 0 34 28 19 46 -15 18 -33 18 -49
-1z"/>
<path d="M1320 2820 c-176 -29 -319 -88 -485 -200 -231 -156 -429 -414 -529
-692 -30 -82 -39 -118 -61 -228 -3 -14 -8 -56 -11 -95 -4 -38 -8 -71 -9 -73
-2 -2 -12 1 -24 7 -26 15 -33 2 -25 -49 7 -45 18 -57 38 -41 10 9 18 -3 35
-56 12 -37 38 -92 57 -123 33 -53 34 -55 15 -70 -14 -12 -18 -24 -15 -55 10
-90 50 -171 174 -351 44 -65 80 -124 80 -132 0 -18 70 -96 120 -134 37 -29 56
-36 44 -16 -8 13 7 5 51 -27 47 -34 146 -89 192 -108 53 -21 181 -55 242 -64
120 -18 388 -4 546 27 84 17 88 18 150 33 273 67 444 170 620 374 145 169 256
404 291 618 10 62 11 334 2 395 -25 156 -78 306 -165 470 -109 204 -259 332
-569 488 -125 63 -180 81 -305 105 -106 20 -330 18 -459 -3z m430 -45 c62 -14
145 -73 127 -91 -2 -2 -30 3 -63 12 -32 9 -66 17 -74 19 -8 2 -35 8 -60 14
-53 12 -227 14 -287 2 -67 -13 -40 5 34 23 130 32 242 39 323 21z m-72 -81
c14 -9 72 -29 130 -45 113 -30 264 -86 347 -127 121 -59 303 -253 373 -396 65
-132 75 -193 73 -431 0 -38 1 -81 3 -95 3 -14 8 -43 11 -65 4 -22 8 -55 8 -73
1 -18 4 -27 8 -20 18 33 28 158 24 313 -3 159 -7 200 -22 250 -3 11 -2 17 2
13 11 -10 35 -117 35 -155 0 -23 5 -33 16 -33 11 0 14 6 9 23 -11 36 -14 50
-21 87 -9 51 -9 50 -29 110 -44 132 -108 223 -271 388 -45 45 -80 82 -77 82 2
0 34 -21 71 -47 91 -64 184 -161 232 -241 59 -101 148 -350 167 -471 10 -59
10 -252 1 -316 -19 -132 -88 -305 -172 -435 -45 -69 -46 -57 -3 23 43 79 71
153 96 247 25 95 31 141 35 265 4 100 4 100 -9 45 -7 -30 -20 -95 -29 -145
-10 -49 -35 -143 -56 -210 -88 -267 -230 -472 -415 -597 -81 -54 -125 -75
-290 -135 -73 -26 -104 -41 -80 -38 22 3 54 7 70 9 17 2 66 17 108 34 42 16
77 28 77 26 0 -2 -23 -15 -50 -29 -78 -39 -164 -58 -270 -58 -89 0 -248 25
-260 41 -3 4 -18 8 -35 10 -63 7 -457 185 -508 230 -15 13 -20 14 -26 3 -10
-15 -46 1 -121 55 -26 18 -49 31 -52 29 -6 -6 -94 102 -154 190 -74 107 -167
310 -133 289 18 -11 2 14 -51 76 -80 95 -93 149 -75 295 32 245 172 520 347
680 79 71 225 179 298 219 56 31 195 71 275 81 32 3 67 11 76 15 9 5 54 20 99
33 93 27 178 27 218 1z"/>
<path d="M1993 849 c-19 -19 -3 -50 25 -47 31 4 38 20 17 42 -19 19 -27 20
-42 5z"/>
<path d="M2244 811 c-71 -28 -122 -59 -229 -141 -33 -25 -79 -59 -103 -74 -23
-16 -41 -31 -39 -33 5 -4 128 42 180 68 109 55 312 208 277 208 -8 0 -47 -12
-86 -28z"/>
<path d="M1745 669 c-11 -17 1 -21 15 -4 8 9 8 15 2 15 -6 0 -14 -5 -17 -11z"/>
<path d="M1658 632 c-10 -2 -18 -8 -18 -13 0 -13 27 -11 35 2 9 13 4 16 -17
11z"/>
<path d="M1570 287 c-31 -15 -52 -73 -38 -102 28 -55 89 -70 132 -33 31 28 38
64 20 100 -24 46 -66 59 -114 35z"/>
<path d="M1397 254 c-10 -11 -9 -42 3 -49 20 -12 51 6 48 28 -3 22 -36 35 -51
21z"/>
</g>
</svg>
