<svg id="Layer_1" data-name="Layer 1" xmlns="http://www.w3.org/2000/svg" viewBox="0 0 458.44 130.58"><title>treat-me-logo</title><path d="M466.27,113.36c-1-.69-2-.1-2.78.68-1.66,1.65-3.27,3.35-4.94,5a12.87,12.87,0,0,1-18.77-.26c-1.39-1.43-1.4-2.46,0-3.94a93.94,93.94,0,0,0,9.77-12.11c2.34-3.61,4.05-7.46,4.2-11.82.11-3-1.27-4.28-4.17-4.46-4.73-.29-8.63,1.65-12,4.71-7.35,6.7-12.46,14.82-14.51,24.63-.54,2.59-.64,4.88-4,5.54-1.74.33-3.29,1.69-5.32,1.66-8-.09-13.71-4.23-18.12-10.48-6.33-9-9.22-19.34-11.28-29.87a260.56,260.56,0,0,1-4.74-52.14,59,59,0,0,0-.11-6.24c-.28-2.81-2.53-4-5.05-2.79a12.65,12.65,0,0,0-6.77,6.83c-1.58,4.11-3.34,8.16-4.85,12.3-7.32,20-13.91,40.35-21.56,60.28a28.31,28.31,0,0,1-3.35,7c-1.05-.84-1-1.92-1.09-2.91-.7-8.71-1.47-17.42-2-26.14-.81-12.7-2.12-25.36-3.86-38A31,31,0,0,0,328,30.44a2.27,2.27,0,0,0-3.17-1.27c-3.88,1.32-5.16,4.67-6.3,8-1.89,5.57-3.55,11.21-5.38,16.79C307.43,71.2,301.77,88.43,296,105.62c-1.19,3.53-2.11,7.2-4,10.7a3,3,0,0,1-.54-2.4c.13-5,.37-10,.43-15.06.25-21.15.25-42.31.17-63.47,0-4.14.26-8.31-.42-12.45-.34-2.08-1.46-2.36-3.13-1.74a6.69,6.69,0,0,0-4.36,6.61c.09,1.63.43,3.26.49,4.89.38,10.82.78,21.63,1,32.45.14,6.07,0,12.14,0,18.21,0,5.29.15,10.59-.08,15.87-.52,11.94-.8,23.89-.91,35.83,0,2,1,2.57,2.86,2.1a7.79,7.79,0,0,0,6-5.81c4.42-15.37,9-30.7,14.05-45.87,2.44-7.29,4.79-14.63,8.34-21.49.54-1.05,1-2.38,2.49-2.37s1.92,1.55,2.53,2.64a9.08,9.08,0,0,1,.65,1.69,69.5,69.5,0,0,1,2.8,13.41c1.5,10.9,2.1,21.86,2.79,32.81.42,6.74.49,13.5.8,20.24.12,2.83,1.76,3.71,4.13,2.15a11.54,11.54,0,0,0,5.22-6.53c.71-2.49,1.71-4.89,2.56-7.34,4.16-12,8.26-24,12.49-36,4.74-13.37,9.54-26.71,14.78-39.88.5-1.24,1.14-2.42,2.53-2.07s.78,1.75.78,2.71c-.05,10.74-.19,21.49-.3,32.23-.11,11,.47,22,3,32.74,1.55,6.51,3.68,12.8,7.72,18.28a22.47,22.47,0,0,0,26.17,7.78,39.76,39.76,0,0,0,15.43-10.21c.58,1.38,1,2.58,1.57,3.75,2.71,5.86,10.56,7.57,16.21,6.67,12.46-2,19.67-10.75,26.05-20.52C466.93,115.29,467.35,114.11,466.27,113.36Zm-30.78-2.21a27.64,27.64,0,0,1-.56-5.94,12.89,12.89,0,0,1,1.66-6.65,4.65,4.65,0,0,1,3.52-2.74c2.67-.4,4.15.7,3.88,3.37a20.34,20.34,0,0,1-6.25,12.69C436.64,113,435.93,112.88,435.49,111.15Z" transform="translate(-8.5 -8.57)" style="fill:#eea560"/><path d="M277.78,53.42a6,6,0,0,0-4.44-1.78c-5.29-.34-10.36.82-15.35,2.23-9.15,2.61-18.05,6-26.93,9.4-2,.78-2.88.44-2.88-1.8,0-3,0-6.09-.26-9.1-.22-2.35-.35-5-3.11-6.06-1.64-.61-3.95,1.53-5.22,4.64A56.73,56.73,0,0,0,215.91,66c-.2,1.85-.49,3.45-2.65,4.25-5.51,2-11,4.27-16.41,6.47-2.73,1.1-5.48,2.18-8.12,3.45s-3.24,3.74-1.87,6.39,3.13,1.43,4.83.58c6.67-3.31,13.51-6.23,20.45-9,2-.79,2.3,0,2.1,1.69a210.46,210.46,0,0,0-1.34,34.49c.2,4.2-1.25,6.39-4.49,8.27-3.62,2.1-6.7,1.74-9.55-1.37a9,9,0,0,1-2.36-8.85c.29-1.12.54-2.28-.75-3s-2.11.17-2.93,1a15.15,15.15,0,0,0-2.52,3.9A10.12,10.12,0,0,1,177.38,119c-3.52-1.4-4.94-5.44-3.79-10.76.08-.34.14-.68.24-1,1.56-5.77,7.26-8.21,12.47-5.37a22.39,22.39,0,0,1,3.82,3.11c1.31,1.14,2.67,2.29,4.62,1.88s4.82-3.89,5.1-6.13a6.17,6.17,0,0,0-3.7-6.77,12.92,12.92,0,0,0-8.89-.82,45.73,45.73,0,0,0-21.4,13.6c-3.56,4-5.89,8.93-10,12.57-5.48,4.91-13.41,4.87-18.5-.26-1.52-1.52-1.72-2.66-.15-4.34a114.65,114.65,0,0,0,7.53-8.93c3.43-4.52,6.41-9.29,6.23-15.32-.09-2.56-1.2-3.73-3.77-4a14.26,14.26,0,0,0-8.69,2.1A34.13,34.13,0,0,0,127.79,99.3c-1.16,1.72-1.75,2.07-3.3.29-3.17-3.61-6.55-4-10.67-1.57a25,25,0,0,0-5.41,4.42c-1.27,1.33-2.3,4-4,3.4s-1.11-3.37-1.25-5.22c-.32-4.17-3.24-6.35-7.15-4.83-5.88,2.29-9.46,7.11-12.47,12.35-.87,1.5-.07,2.47,1.72,2.44s3.47-.1,5.2,0c3.1.08,4.57,1.69,4.41,4.8a15.91,15.91,0,0,1-.38,2.83c-1.07,4.53-2.2,9.06-3.28,13.6-.72,3.07.23,4.77,3.27,5.76a14.08,14.08,0,0,0,8,.23c5.24-1.35,8-4,5.54-10-1.63-3.89-3.33-7.82-3.82-12.08-.21-1.77-.16-3.54,1.87-4.4s3,.66,4.1,1.87c.29.32.59.64.9.94,2.42,2.42,4.47,2.68,7.45.95.69-.4,1.26-1.08,2.22-1.1-.31,2.13-.71,4.08-.84,6.06-.57,8.34,2.44,15.3,12,16.62a23.73,23.73,0,0,0,17.81-4.71c2.75-2,5.22-4.37,8-6.68-.37,11.18,11,13.89,17.58,8.76a76.16,76.16,0,0,0,7.24-6.3c1-1.07,1.91-3.14,3.51-2.6,1.77.59.8,2.74.87,4.17.34,6.8,3.42,9.63,9.91,8.8a16.2,16.2,0,0,0,5.94-2.5c4.58-2.66,8-6.5,11.47-10.9.37.86.59,1.33.79,1.81,3.47,8.35,9.71,11.3,18.4,8.82A35.23,35.23,0,0,0,248,126.32c2.29-2.22,4.28-4.83,4.47-8.27.06-1,.63-2.43-.71-3s-1.78.8-2.51,1.42a15,15,0,0,1-23.16-4c-2.71-4.77-3.4-10.14-3.75-15.51-.18-2.64-1.23-5.47.07-8a47.1,47.1,0,0,0,4.32-13.81,3.83,3.83,0,0,1,3.18-3.45c7.2-2.19,14.31-4.7,21.56-6.72,4.46-1.23,9-3.6,13.81-1,.42.23,1.19-.08,1.75-.26a56.27,56.27,0,0,0,10-4.35C279.33,58,279.59,55.44,277.78,53.42ZM135,112c-.92.91-1.57.7-2-.64a16.49,16.49,0,0,1,1.2-13.27,4.29,4.29,0,0,1,4.2-2.36c2.26-.11,3.21,1.28,3,3.08A21.11,21.11,0,0,1,135,112Z" transform="translate(-8.5 -8.57)" style="fill:#eea560"/><path d="M110.37,12.72a26.8,26.8,0,0,1-2.58,8.91,5.33,5.33,0,0,1-4.75,3C91.39,25.7,80,28.35,68.68,31.1c-10.74,2.61-21.46,5.35-31.92,9-8.58,3-17,6.29-24.59,11.45-.79.53-1.72,1.07-2.67.51a2.53,2.53,0,0,1-.94-2.78A58.46,58.46,0,0,1,12.64,35.4c.54-1.29,1.76-1.84,2.92-2.44,11.83-6.06,24.34-10.31,37.05-14A289,289,0,0,1,95.36,9.63c3.51-.48,7-.78,10.58-1C108.78,8.38,110.46,10,110.37,12.72Z" transform="translate(-8.5 -8.57)" style="fill:#eea560"/><path d="M45.06,101.36A164.55,164.55,0,0,1,48.68,70a210.92,210.92,0,0,1,7-27.57,5.29,5.29,0,0,1,5-3.89c1.58-.12,2.21.51,1.9,2.16-1.22,6.46-2.32,12.93-2.9,19.48-.95,10.59-1.78,21.16-.57,31.82a73.73,73.73,0,0,0,5,20.57,23.62,23.62,0,0,0,5.71,8.59c2.54,2.28,5.45,3.55,9,2.94,2.81-.47,3.59.47,3.12,3.33a6.89,6.89,0,0,1-2,3.86c-4.87,4.82-10.65,7.66-17.55,7.84-6.49.16-10.9-2.79-13.51-9-2.84-6.71-3.75-13.79-3.8-21C45,106.56,45.06,104,45.06,101.36Z" transform="translate(-8.5 -8.57)" style="fill:#eea560"/></svg>