<svg xmlns="http://www.w3.org/2000/svg" viewBox="0 0 850.15 876.19"><title>Treat Me Logo</title><g id="circle"><path d="M970.94,521.82a186.09,186.09,0,0,0-1.52-20.38c-1-6.88-1.84-13.8-2.71-20.7-.72-5.77-1.91-11.46-3-17.1-1.49-7.74-3.46-15.46-5.51-23.12-2.22-8.33-4.69-16.59-7.3-24.77-4.28-13.41-9.89-26.34-15.6-39.21-7.66-17.3-16.51-34-25.2-50.79C903.71,313.4,895.67,302,887,291c-14.87-19-32.3-35.23-51.11-50.1-18.65-14.75-38.71-27.42-59.29-39.25-18.26-10.48-37.06-19.94-55.88-29.37-7.25-3.63-14.36-7.62-22-10.42-5.89-2.16-11.74-4.44-17.82-6.13-8-2.22-16-4-24.07-6.07-4.35-1.1-8.84-1.48-13.1-2.65-5.78-1.58-11.72-2-17.54-3.22-12.33-2.59-25.08-1.91-37.58-3.81-6.19-.95-12.63-.73-18.93-.44s-12.47-.46-18.76-.17c-10.14.47-20.13,2.65-30.31,2.35a25.1,25.1,0,0,0-4.45.57c-8.52,1.31-17.12,2.24-25.66,3.2-9.45,1.06-18.5,3.86-27.92,5-5.37.66-10.77,2.9-16.14,4.48-11.07,3.26-21.94,7.12-32.7,11.34a352.63,352.63,0,0,0-40.3,19.24c-13.8,7.56-27,16.07-40.07,24.89a430.93,430.93,0,0,0-47.6,37.74,414.41,414.41,0,0,0-35.29,36.56,499.29,499.29,0,0,0-44.2,59.44A439.64,439.64,0,0,0,175.07,404c-4.22,9.71-7.78,19.67-11.38,29.62A408.86,408.86,0,0,0,151.8,473c-2.06,8.15-4,16.41-5.28,24.79-.78,5.05-1.77,10.1-2.5,15.18-1.17,8.18-2.4,16.36-3.36,24.57a77.74,77.74,0,0,0-.23,10.47c.06,3.23-.89,6.22-1.64,9.28-.6,2.4-1.73,2.51-3.55,1.26-2.06-1.41-4.11-2.84-6.29-4.06-4.32-2.42-7.53-.51-7.63,4.51a8,8,0,0,0,.52,3.9c1.53,2.66,1.74,5.7,2.89,8.47a10.83,10.83,0,0,1-.13,9.19c-.86,1.66-.76,2.86.53,3.95a15.12,15.12,0,0,0,2.94,1.84c4.21,2.11,5.8,1.57,7.91-2.63a20.81,20.81,0,0,1,1.49-3.12c1.06-1.45,2.39-1.3,3,.29a33.27,33.27,0,0,1,2,6.64,94.7,94.7,0,0,0,5.42,19.58c4.57,12.29,10,24.17,17.43,35.1,2.88,4.25,5.39,8.73,8.63,12.76,2.49,3.11,1.9,5.38-1.48,7.35a27,27,0,0,1-3.69,1.46c-3.07,1.22-4.38,3.22-4.61,6.79-.51,8.11,1.93,15.79,2.88,23.66.93,7.67,3.92,15,6.82,22.24,5.84,14.51,13.52,28,21.87,41.22C206.69,775,219.24,791.07,230.68,808c5.77,8.51,11.14,17.28,16.69,25.93,1.08,1.68,1.24,3.07-1,3.91-2.06.78-1.24,2-.32,3.07,1.54,1.74,3.19,3.38,4.79,5.06,10.53,11,19.93,23.21,32.36,32.39a103.86,103.86,0,0,0,12.89,8.44c2,1,2.92.42,2.79-1.61-.08-1.26-1.2-2.78.33-3.6s2.35.83,3.42,1.52a28.11,28.11,0,0,1,2.77,2.11,165.63,165.63,0,0,0,20,14.76c15.51,9.57,31.2,18.89,48.23,25.64,6.91,2.74,13.75,5.66,20.94,7.68,8.76,2.46,17.4,5.39,26.23,7.54,3.84.93,7.61,2.3,11.57,2.74A140.38,140.38,0,0,1,447,946.2c10.45,2.28,21.08,2.86,31.62,3.77,11.23,1,22.6.82,36.79.24,3,0,8.78,0,14.6,0a213.17,213.17,0,0,0,25.36-1.59c9-1.13,18.16-1.52,27.23-2.77,7-1,14-2.82,21.22-2.63a5.14,5.14,0,0,0,1.45-.36c6.35-2,13-2.22,19.51-3.37,4.88-.86,9.89-1.6,14.59-2.88,7.85-2.13,15.86-3.46,23.7-5.58,8.75-2.36,17.69-4,26.46-6.41s17.55-4.83,26.23-7.54c8.36-2.6,16.65-5.43,24.91-8.34,7.16-2.53,14.63-4.31,21.2-8.37q7.39-4.58,14.9-9a347.84,347.84,0,0,0,37-25.14,363.27,363.27,0,0,0,33.94-29.19c11.09-11,21.74-22.4,31.7-34.4a377.14,377.14,0,0,0,23.71-32,411.75,411.75,0,0,0,29.25-51.39c4.06-8.52,7.72-17.22,11.33-25.94,4.82-11.64,8.5-23.64,12.07-35.68,1.93-6.5,3.56-13.1,5.25-19.67,1.24-4.81,2.24-9.68,3.07-14.52,1-5.85,1.94-11.78,3-17.6a249.43,249.43,0,0,0,3.13-25.71C971.79,560.77,971.65,541.28,970.94,521.82ZM506,171.84c6-1.86,12-3.77,18.1-5.32,5.92-1.51,12-2.55,17.83-4.24,6.48-1.9,13.34-.55,19.54-3.32a1.58,1.58,0,0,1,.49-.09c14.39-.9,28.79-4.11,43.18-1.83,7.18,1.15,14.45,1.61,21.63,2.66,9.57,1.4,16.64,7.11,24.73,11.09,1.93,1,3.76,2.09,5.66,3.1,3.38,1.78,6.51,4,8.52,7.46.73,1.26,1.44,2.66,2.87,3.38a10.16,10.16,0,0,0,1.33,4.69,1.74,1.74,0,0,1-.21,2.26,1.9,1.9,0,0,1-2.3.12,10.43,10.43,0,0,0-6.68-1.17h0c-1.81-2.46-4.42-2.16-7-2-4.78-1.9-10-2.49-14.69-4.41-9.28-3.78-19.42-4.21-28.71-7.88-3.06-1.21-6.5-1.29-9.71-1.88-5.82-1-11.48-3-17.58-2.93-13.64.26-27.29-.07-40.93.17-9.12.16-18.1,2.5-27.29,2.15-5.72,2.62-12.21,1.09-18,3.37a7.09,7.09,0,0,1-5.89-.44C496.46,175,501.22,173.32,506,171.84ZM955,558.92c-.93,8.36-1.64,16.8-3,25.18-1.83,11.63-4.32,23.1-7.24,34.42A293.93,293.93,0,0,1,933.63,653a416.1,416.1,0,0,1-25.09,53,382.17,382.17,0,0,1-22.15,34.78c-2.23.89-2.71,0-2-2,2.74-6.43,6.93-12.06,10.11-18.26,6.72-13.13,13.32-26.3,18.36-40.21,2.43-6.69,5.34-13.2,7.47-20,1.92-6.15,3.38-12.43,5.32-18.58,2.34-7.44,3.45-15.18,5.7-22.64a6.62,6.62,0,0,0,.54-1.91c-.21-6.37,1.65-12.55,2.87-18.61,1.79-8.85.38-18,3.23-26.6a13.07,13.07,0,0,0,.34-4q.08-20.71.08-41.43a7.8,7.8,0,0,0-.6-3.87c-1.62.18-1.17,1.44-1.31,2.29-1.26,7.49-2.05,15.05-3.7,22.49-1,4.66-1.53,9.48-2.25,14.2-1.45,9.36-3.32,18.65-5.39,27.84-1.7,7.55-3.26,15.16-5.31,22.66-1.74,6.37-3.56,12.75-5.12,19.19-1.32,5.46-3.08,10.83-4.84,16.17-2.43,7.38-5.05,14.7-7.56,22.06-3.47,10.19-7.66,20.1-11.86,30-9.93,23.45-22.66,45.37-37,66.36-5.87,8.62-12.56,16.68-19.14,24.81a264.67,264.67,0,0,1-25.41,26.66C788.66,836.29,765.82,851.48,741,864c-14.88,7.47-30.47,12.95-46,18.75-4.78,1.78-9.87,2.74-14.68,4.55-7.13,2.67-14.36,5.06-21.46,7.8-3.73,1.44-7.67,2.05-11.41,3.37a1.8,1.8,0,0,0-1.58,1.67,20.69,20.69,0,0,0,9.55-.28c1.29-.33,2.55-1.14,3.8-1.11,6.55.15,12.76-2.08,19.23-2.58a62,62,0,0,0,12.59-2.79,249.38,249.38,0,0,0,28-10c1.21-.52,2.33-1.23,3.5-1.86a95.89,95.89,0,0,0,15.07-6.83l1.83-.26c2-.53,3.07-.18,2.14,2.17h0c-3.24,1.84-6.35,3.92-9.92,5.14-4.44,3.56-9.67,5.67-14.84,7.82-9.46,3.94-19,7.89-28.92,10.31-4.76,1.15-9.71,2-14.53,3-10.82,2.23-21.84,1.42-32.66,3.14a54.24,54.24,0,0,1-16.87-.1,80.81,80.81,0,0,0-10.42-.91c-8.82-.23-17.32-2.29-25.93-3.91-7.79-1.46-15.48-3.38-23.28-4.77-3.57-.64-6.88-2.42-10.57-2.67-.65,0-1.52-.3-1.52-1.06,0-3.48-2.52-3-4.57-2.8-6.16.7-11.72-1.31-17.37-3.3-6.86-2.41-13.8-4.56-20.61-7.15-11.76-4.47-23.18-9.67-34.63-14.84-12.37-5.59-24.45-11.79-36.75-17.51-12-5.59-23.48-12.2-35.3-18.16-7.68-3.87-15.16-8.12-22.73-12.2-1.07-.56-2.47-.6-3.06-1.91a7,7,0,0,0-2.64-.81,1.82,1.82,0,0,0-1.62.89c-.83,1.28,1.05,2.09,1.8,3s1.71,1.64.39,2.78l-1.83,0c-1.26-.84-2.87-.92-4.1-1.83-12.51-4.79-23.5-12.13-34.15-20.1-5.71-4.27-11.48-8.47-17.23-12.68a1.38,1.38,0,0,0-1.71-.07c-.22,1.8,2.25,3.68.69,5.75-1.4.35-1.8-.83-2.35-1.53q-12-15-23.92-30c-15.91-20.24-30.76-41.19-43.2-63.79-5.76-10.46-10.84-21.27-15.95-32.06a152.67,152.67,0,0,1-8.19-19.66c-1.56-5-2.84-10.09-4.43-15.82,3.93,1.68,4.84,6,8.82,7.31-.48-4.22-3-6.73-5.42-9.07a158.84,158.84,0,0,1-13-14.5c-1.58-1.92-3.25-3.79-4-6.23a7.69,7.69,0,0,0-3-3.93c-6.72-4.64-10.14-11.69-13.75-18.59-2.37-4.53-3.51-9.67-6.82-13.75-.8-1-.5-2.22-.49-3.38q.21-17.72.43-35.43c.05-3.16,0-6.32,1.37-9.31a7.57,7.57,0,0,0,.51-2.93c.32-10.51,2.74-20.72,5-30.87a341.74,341.74,0,0,1,10.7-39.19A431.27,431.27,0,0,1,216,407.47a391.52,391.52,0,0,1,23.53-43.21c6.3-9.93,13.05-19.55,20-29.06a263.15,263.15,0,0,1,40.17-43.37c8.16-7.05,16.81-13.55,25.34-20.16,7.07-5.49,14.15-11,21.5-16.09,7.62-5.29,14.92-11,22.92-15.78,9.55-5.68,18.38-12.54,28.61-17.11,7.28-3.24,14.89-5.51,22.39-8.12,5.93-2.06,11.95-3.83,18-5.67,1.58-.48,3.23-.72,4.86-1.05,7.95-1.63,15.87-3.32,23.88-4.69a123.48,123.48,0,0,1,15.25-1.77c3.21-.15,6.23-1.18,9.25-2,8.14-2.16,16.25-4.38,24.2-7.32,10.52-3.9,21.1-7.61,32.13-10.15,8-1.86,16.11-2.51,24.17-3.09a54.38,54.38,0,0,1,35.28,9.75,36.05,36.05,0,0,0,10.82,4.73c7.15,2,14.44,3.46,21.59,5.54,6,1.74,12.07,3.44,18.17,4.93,5.3,1.29,10.51,3,15.71,4.65,5.51,1.76,11,3.73,16.46,5.5,10.89,3.5,21.46,7.85,32.05,12.12Q743,234.43,763,244.38a88.56,88.56,0,0,1,20.74,14.49c5.49,5.06,11.21,9.88,16.84,14.8a342,342,0,0,1,53,58,253.94,253.94,0,0,1,23.81,39.64,179.62,179.62,0,0,1,9.48,24c1.83,6,4.28,11.84,5.53,18,1,4.85,2.12,9.7,3.17,14.52,1.53,7,1.6,14.15,2.52,21.2a144.64,144.64,0,0,1-.09,40.24c-.88,5.88-.4,12-.71,17.94-.53,10.52.91,20.92,2.59,31.21.86,5.21,2,10.42,2.78,15.66,1.51,10.18,3.61,20.28,3.57,30.64,0,1.93-.46,4,.74,5.82.74-1.2,2.91-9.52,3.4-11.43,1.75-6.91,1.66-14.13,3.6-21a9.94,9.94,0,0,0,.35-2c1.65-19.05,3.19-38.11,2.55-57.27,0-.67-.12-1.33-.11-2,.36-17.5-1.52-34.9-2.48-52.32a184.2,184.2,0,0,0-3.34-26.6c-1-4.82-2.32-9.63-2.84-14.6-.38-3.72-1.92-7.32-3-10.95-.47-1.56-1.37-3.05,0-5,2.64,4.06,3.81,8.52,5,12.83,2,7,4.55,13.84,5.64,21.07,1.13,7.53,3.69,14.84,3.44,22.56-.17,5.55,2.27,10.72,2.2,16.25a2.48,2.48,0,0,0,2.17,2.39c1.73.45,3.45,1,5.1,1.41a4.05,4.05,0,0,0,.48-4c-2.19-7.12-3.43-14.48-5.18-21.71-1.12-4.6-2-9.36-2.94-14.06a191.11,191.11,0,0,0-7-26.9c-2.45-7-4.64-14.12-7.68-20.93a264.35,264.35,0,0,0-18.84-35.55c-5.49-8.53-11.17-16.92-17.88-24.48-5.52-6.21-10.8-12.62-16.42-18.74-3.82-4.15-7.43-8.43-10.86-13-4.07-5.39-9.26-9.93-14-14.85-9.19-9.65-19.59-17.94-29.77-26.46-1.76-1.48-1.82-1.4-3.06-4,1.08-.77,1.84,0,2.67.55C815.28,250.2,832,261,847,274.16a276.26,276.26,0,0,1,34.68,35.67,254.23,254.23,0,0,1,19.61,29.36,216.51,216.51,0,0,1,17.16,36.87c3.77,10.59,7.44,21.23,11.27,31.8,2.7,7.45,5.63,14.84,8,22.4,2.65,8.52,5.63,16.95,7.58,25.68,1.77,7.9,3.92,15.71,5.63,23.61,1,4.53,1.43,9.18,2,13.75C955.93,515.08,957.41,537,955,558.92Z" transform="translate(-121.3 -129.97)" style="fill:#704d2b"/><path d="M608.66,979.31c1,13.51-13,27.11-27.07,26.84A27.29,27.29,0,0,1,554.82,979c0-14,11.55-26.59,27.13-26.82C595.92,952,609.5,965.45,608.66,979.31Z" transform="translate(-121.3 -129.97)" style="fill:#704d2b"/><path d="M511.32,973.54c-.2-5.95,4.38-9.23,9.74-9.84,4.33-.5,10,5.69,10,9.94,0,5-5.52,10.07-9.79,10.21C515.81,984,511.32,979.15,511.32,973.54Z" transform="translate(-121.3 -129.97)" style="fill:#6e4b2a"/><path d="M362.83,140.92a9.4,9.4,0,0,1-9.56,8.78c-5.1-.23-10.25-6-10-11.15.25-4.88,4.69-8.54,9.8-8.58C358.54,129.93,363.63,135.72,362.83,140.92Z" transform="translate(-121.3 -129.97)" style="fill:#6f4c2c"/><path d="M660.71,190.63c-2-1.9-4.72-1.12-7-2C656.29,188.47,658.9,188.17,660.71,190.63Z" transform="translate(-121.3 -129.97)" style="fill:#111010"/><path d="M670.75,192.58a3.11,3.11,0,0,1-3.69.17c-1.9-1.66-4.21-1.5-6.34-2.12a10.43,10.43,0,0,1,6.68,1.17,1.9,1.9,0,0,0,2.3-.12,1.74,1.74,0,0,0,.21-2.26,10.16,10.16,0,0,1-1.33-4.69c1.14,1.23,1,3,2,4.36C671.42,190.13,672.05,191.51,670.75,192.58Z" transform="translate(-121.3 -129.97)" style="fill:#111010"/><path d="M741.65,876.54a3.84,3.84,0,0,0-2.14-2.17c5.18-4.48,11.43-7.25,17.33-10.5a195.65,195.65,0,0,0,21.23-13.66c2.28-1.66,4.48-3.42,7.43-3.71l.15.15A5.59,5.59,0,0,1,783,850.1c-12.73,8.95-25,18.54-39,25.6A22.68,22.68,0,0,1,741.65,876.54Z" transform="translate(-121.3 -129.97)" style="fill:#362618"/><path d="M884.36,738.68a3.33,3.33,0,0,0,2,2c-1.07,4.36-4.24,7.49-6.92,10.72-3.49,4.21-6.56,8.72-9.81,13.07-4.08,5.46-9,10.19-13.08,15.58a1.07,1.07,0,0,1-1.45.23c-.83-1.91.79-2.95,1.78-4.12,5.77-6.83,11-14.06,16.2-21.33,3.17-4.44,6-9.13,8.9-13.75C882.64,740.1,883.14,739.07,884.36,738.68Z" transform="translate(-121.3 -129.97)" style="fill:#3f2b18"/><path d="M681.06,196.38c10.77-.27,20.84,1.37,28.08,10.47C699.3,204.7,690.3,200.22,681.06,196.38Z" transform="translate(-121.3 -129.97)" style="fill:#3c2918"/><path d="M676.57,194.68c-5.7-.05-10.81-1.92-15.85-4.05a10.43,10.43,0,0,1,6.68,1.17,1.9,1.9,0,0,0,2.3-.12,1.74,1.74,0,0,0,.21-2.26,10.16,10.16,0,0,1-1.33-4.69h0c1.71,1.45,2.34,3.6,3.5,5.4S675.34,192.73,676.57,194.68Z" transform="translate(-121.3 -129.97)" style="fill:#3c2918"/><path d="M375.09,820.54c-1.57-3.8-5.59-5.89-7.51-10.31,4.22.38,6.69,2.88,9.58,4.42-1.53.19-3.74-.12-1.89,2.57C376.06,818.37,377.5,819.56,375.09,820.54Z" transform="translate(-121.3 -129.97)" style="fill:#452f1c"/><path d="M785.5,846.5c.09-.32.08-.73.28-1,3.32-3.57,7.83-5.57,11.46-8.78-2.79,4.61-6.35,8.25-11.59,9.88Z" transform="translate(-121.3 -129.97)" style="fill:#362618"/><path d="M737.68,874.63a30.38,30.38,0,0,1-15.07,6.83A74.93,74.93,0,0,1,737.68,874.63Z" transform="translate(-121.3 -129.97)" style="fill:#362618"/><path d="M731.72,881.68c3.19-1.94,6-4.7,9.92-5.14A15.62,15.62,0,0,1,731.72,881.68Z" transform="translate(-121.3 -129.97)" style="fill:#362618"/><path d="M660.71,190.63a19.6,19.6,0,0,1-7-2C656.29,188.47,658.9,188.17,660.71,190.63Z" transform="translate(-121.3 -129.97)" style="fill:#3c2918"/><path d="M369.16,818.68a4.55,4.55,0,0,1,4.1,1.83A4.32,4.32,0,0,1,369.16,818.68Z" transform="translate(-121.3 -129.97)" style="fill:#452f1c"/><path d="M377.16,814.65l3.06,1.91A2.78,2.78,0,0,1,377.16,814.65Z" transform="translate(-121.3 -129.97)" style="fill:#452f1c"/><path d="M660.86,869.45c.67-1.76,2.26-2.37,3.58-3.18,11.87-7.31,23.32-15.26,34.62-23.39,10.5-7.56,20.6-15.67,30.79-23.65,16-12.54,33.18-23.06,52.35-30.08,10.08-3.7,20.49-6.51,30.23-11.15a2,2,0,0,1,2.43.56c-.23,2.07-1.94,3.26-3.31,4.6a346.33,346.33,0,0,1-29.79,25.62c-12.59,9.84-26.14,18.15-39.67,26.51-9.45,5.84-19.55,10.49-29.53,15.35-14.92,7.28-30.52,12.68-46.39,17.42a17.66,17.66,0,0,0-2.73,1.17A2.44,2.44,0,0,1,660.86,869.45Z" transform="translate(-121.3 -129.97)" style="fill:#704d2b"/><path d="M711,792.9c-6.1.78-9.91-5-10-9.88-.11-5.06,5.73-9.3,9.89-9.3,4.93,0,9.76,5,9.73,10.1C720.59,789.19,716.69,792.87,711,792.9Z" transform="translate(-121.3 -129.97)" style="fill:#6f4c2b"/><path d="M600.3,844.35c1.28.17,3.06-.47,3.74,1.39s-.82,3.17-2.15,4a31,31,0,0,1-10.42,4.4c-1.24.26-2-.27-1.58-1.61C591.19,848.53,596.4,844.41,600.3,844.35Z" transform="translate(-121.3 -129.97)" style="fill:#634327"/><path d="M623.12,839.94a1.51,1.51,0,0,1-1.07-2.26,20.42,20.42,0,0,1,7.86-8.58c1.1-.69,1.87.17,1.92,1.35a6.83,6.83,0,0,1-.31,2.42C630.63,835.56,625.18,840.12,623.12,839.94Z" transform="translate(-121.3 -129.97)" style="fill:#5d3f24"/><path d="M639.5,901.78a1,1,0,0,1-1.33.06.44.44,0,0,1,.11-.78,1.7,1.7,0,0,1,1,0C639.65,901.12,639.73,901.43,639.5,901.78Z" transform="translate(-121.3 -129.97)" style="fill:#704d2b"/></g><g id="Text"><g id="Team_Me_Event_Confectionary_Co" data-name="Team Me Event Confectionary Co"><path d="M783.93,533.73c-1-.69-2-.09-2.79.68-1.66,1.65-3.27,3.35-4.94,5a12.87,12.87,0,0,1-18.77-.25c-1.38-1.43-1.39-2.47,0-3.95a94.18,94.18,0,0,0,9.78-12.11c2.33-3.61,4.05-7.46,4.2-11.82.1-2.95-1.27-4.28-4.18-4.46-4.73-.29-8.62,1.65-12,4.71-7.36,6.71-12.47,14.82-14.52,24.63-.54,2.59-.63,4.89-4,5.54-1.74.33-3.28,1.69-5.32,1.67-8-.1-13.7-4.23-18.11-10.48-6.34-9-9.22-19.34-11.29-29.88a262,262,0,0,1-4.74-52.14,56.46,56.46,0,0,0-.11-6.24c-.27-2.81-2.52-4-5-2.79a12.67,12.67,0,0,0-6.76,6.83c-1.59,4.11-3.34,8.16-4.86,12.3-7.32,20.05-13.91,40.35-21.55,60.28a28.35,28.35,0,0,1-3.36,7,3.55,3.55,0,0,1-1.09-2.91c-.69-8.71-1.46-17.42-2-26.14q-1.22-19.05-3.87-38a30.45,30.45,0,0,0-2.89-10.45,2.25,2.25,0,0,0-3.16-1.27c-3.88,1.31-5.16,4.66-6.31,8-1.89,5.56-3.54,11.2-5.38,16.78-5.67,17.22-11.33,34.46-17.13,51.64-1.19,3.53-2.11,7.2-4,10.7a3,3,0,0,1-.53-2.4c.12-5,.37-10,.43-15,.24-21.16.24-42.32.17-63.48,0-4.14.25-8.31-.42-12.44-.35-2.09-1.47-2.37-3.13-1.75a6.67,6.67,0,0,0-4.36,6.61c.09,1.64.43,3.26.48,4.89.39,10.82.79,21.63,1,32.45.15,6.07,0,12.14,0,18.21,0,5.29.15,10.59-.08,15.87q-.76,17.91-.91,35.84c0,2,1,2.57,2.86,2.09a7.78,7.78,0,0,0,6-5.81c4.42-15.37,9-30.69,14-45.86,2.44-7.3,4.79-14.64,8.35-21.5.54-1,1-2.38,2.48-2.37,1.62,0,1.92,1.55,2.54,2.64a9.84,9.84,0,0,1,.65,1.69,70.36,70.36,0,0,1,2.8,13.42c1.49,10.89,2.1,21.85,2.78,32.8.43,6.74.5,13.5.8,20.25.12,2.82,1.77,3.7,4.14,2.15A11.64,11.64,0,0,0,655,548.4c.7-2.49,1.7-4.89,2.55-7.34,4.17-12,8.26-24,12.5-36,4.73-13.37,9.54-26.7,14.78-39.88.49-1.24,1.13-2.42,2.52-2.07s.79,1.75.78,2.71c0,10.75-.19,21.49-.29,32.23-.12,11,.47,22,3,32.74,1.56,6.51,3.68,12.8,7.73,18.28a22.43,22.43,0,0,0,26.16,7.78,39.76,39.76,0,0,0,15.43-10.21c.58,1.38,1,2.59,1.57,3.75,2.71,5.86,10.56,7.57,16.21,6.67,12.46-2,19.68-10.75,26-20.52C784.59,535.66,785,534.48,783.93,533.73Zm-30.78-2.21a27.64,27.64,0,0,1-.56-5.94,13,13,0,0,1,1.65-6.65,4.71,4.71,0,0,1,3.52-2.74c2.67-.4,4.15.7,3.88,3.37a20.33,20.33,0,0,1-6.25,12.7C754.29,533.33,753.59,533.26,753.15,531.52Z" transform="translate(-121.3 -129.97)" style="fill:#eea560"/><path d="M595.43,473.79A6,6,0,0,0,591,472c-5.28-.34-10.36.82-15.34,2.24-9.15,2.6-18.06,6-26.93,9.39-2,.78-2.88.45-2.89-1.8,0-3,0-6.09-.25-9.1-.22-2.35-.35-5-3.12-6.06-1.64-.61-4,1.53-5.22,4.65a56.15,56.15,0,0,0-3.67,15.06c-.21,1.84-.5,3.44-2.65,4.24-5.52,2-11,4.28-16.42,6.47-2.73,1.1-5.47,2.18-8.12,3.45s-3.23,3.74-1.87,6.39,3.13,1.43,4.83.59c6.68-3.31,13.52-6.23,20.45-9,2-.79,2.3,0,2.11,1.69a211.62,211.62,0,0,0-1.35,34.49c.21,4.2-1.24,6.39-4.48,8.27-3.62,2.1-6.71,1.74-9.55-1.37a9,9,0,0,1-2.37-8.85c.3-1.12.54-2.28-.74-3s-2.11.16-2.94,1a15.48,15.48,0,0,0-2.52,3.91A10.12,10.12,0,0,1,495,539.34c-3.52-1.4-4.94-5.44-3.78-10.76.08-.34.14-.68.23-1,1.57-5.76,7.27-8.21,12.48-5.37a23.72,23.72,0,0,1,3.82,3.11c1.3,1.14,2.67,2.29,4.62,1.88s4.82-3.89,5.09-6.13a6.13,6.13,0,0,0-3.69-6.76,12.89,12.89,0,0,0-8.9-.83,45.78,45.78,0,0,0-21.4,13.6c-3.56,4-5.88,8.93-10,12.58-5.49,4.9-13.41,4.86-18.51-.26-1.51-1.53-1.71-2.66-.14-4.34,2.65-2.86,5.18-5.83,7.53-8.93,3.42-4.53,6.41-9.3,6.22-15.33-.08-2.56-1.2-3.73-3.77-4a14.2,14.2,0,0,0-8.69,2.11,34,34,0,0,0-10.74,10.74c-1.16,1.72-1.74,2.07-3.29.29-3.17-3.61-6.56-4-10.68-1.57a24.45,24.45,0,0,0-5.4,4.43c-1.27,1.32-2.3,4-4.05,3.39s-1.1-3.37-1.24-5.22c-.33-4.16-3.24-6.35-7.16-4.83-5.87,2.29-9.45,7.11-12.47,12.35-.86,1.5-.07,2.48,1.73,2.45s3.46-.1,5.19-.06c3.11.09,4.57,1.69,4.41,4.8a14.92,14.92,0,0,1-.37,2.83c-1.07,4.54-2.21,9.06-3.28,13.61-.72,3.06.22,4.76,3.26,5.75a14.2,14.2,0,0,0,8,.24c5.23-1.36,8-4,5.53-10-1.62-3.89-3.33-7.82-3.82-12.08-.2-1.77-.15-3.54,1.88-4.4s3,.67,4.1,1.87c.29.32.58.64.89.95,2.42,2.42,4.48,2.67,7.46.94.68-.4,1.25-1.07,2.21-1.1-.3,2.13-.7,4.08-.84,6.06-.57,8.34,2.44,15.3,12,16.62a23.7,23.7,0,0,0,17.81-4.71c2.74-2,5.22-4.37,7.95-6.68-.37,11.19,11,13.89,17.57,8.76A74.94,74.94,0,0,0,500,548c1.06-1.07,1.91-3.14,3.51-2.6,1.78.6.81,2.74.88,4.18.33,6.79,3.41,9.62,9.9,8.8a16.15,16.15,0,0,0,5.94-2.51c4.58-2.66,8-6.5,11.47-10.89.38.85.59,1.32.79,1.8,3.48,8.35,9.71,11.3,18.4,8.82a35,35,0,0,0,14.73-8.92c2.3-2.21,4.28-4.83,4.48-8.27.06-1,.62-2.43-.71-3s-1.78.8-2.51,1.42a15,15,0,0,1-23.16-4c-2.71-4.77-3.4-10.14-3.75-15.51-.18-2.64-1.24-5.47.06-8a46.71,46.71,0,0,0,4.32-13.81,3.85,3.85,0,0,1,3.18-3.45c7.2-2.19,14.31-4.7,21.57-6.71,4.46-1.24,9-3.61,13.8-1.05.43.23,1.19-.08,1.75-.26a56,56,0,0,0,10-4.35C597,478.37,597.24,475.82,595.43,473.79ZM452.67,532.41c-.92.91-1.56.7-2-.64a16.41,16.41,0,0,1,1.2-13.27,4.31,4.31,0,0,1,4.2-2.36c2.26-.11,3.2,1.28,3,3.08A21,21,0,0,1,452.67,532.41Z" transform="translate(-121.3 -129.97)" style="fill:#eea560"/><path d="M428,433.09a27.05,27.05,0,0,1-2.59,8.91,5.32,5.32,0,0,1-4.74,3c-11.65,1.06-23,3.71-34.37,6.46-10.74,2.61-21.45,5.36-31.91,9-8.59,3-17,6.29-24.6,11.45-.79.54-1.72,1.07-2.66.51a2.52,2.52,0,0,1-.94-2.77,57.28,57.28,0,0,1,4.08-13.87c.53-1.3,1.75-1.85,2.92-2.45,11.82-6.06,24.34-10.31,37-14A290.16,290.16,0,0,1,413,430c3.51-.48,7.05-.78,10.58-1C426.43,428.75,428.11,430.4,428,433.09Z" transform="translate(-121.3 -129.97)" style="fill:#eea560"/><path d="M362.71,521.74a166.19,166.19,0,0,1,3.62-31.35,211,211,0,0,1,7-27.57,5.28,5.28,0,0,1,5-3.89c1.58-.11,2.21.51,1.89,2.17-1.21,6.45-2.31,12.93-2.9,19.48-.94,10.59-1.78,21.15-.56,31.81a73.3,73.3,0,0,0,5,20.57,23.59,23.59,0,0,0,5.7,8.59c2.54,2.28,5.46,3.55,9,3,2.8-.48,3.59.46,3.11,3.32a6.77,6.77,0,0,1-2,3.86A25.25,25.25,0,0,1,380,559.52c-6.49.17-10.89-2.79-13.5-9-2.84-6.71-3.76-13.79-3.8-21C362.7,526.93,362.71,524.33,362.71,521.74Z" transform="translate(-121.3 -129.97)" style="fill:#eea560"/><path d="M489.58,655.56c-2.15.64-3.4,0-4.72-1.73a11.29,11.29,0,0,0-14-3.24,12.34,12.34,0,0,0-6.54,13.73c1.24,5.44,6.18,9.62,11.53,9.5a11.48,11.48,0,0,0,9.2-4.59,13.16,13.16,0,0,1,1.07-1.47,2.6,2.6,0,0,1,3.13-.29c1,.59-.1,1.5-.47,2.15a14.89,14.89,0,0,1-16.91,7,15.18,15.18,0,0,1-11-14.19c-.18-8.61,4.66-14.68,12.93-16.22C480.23,645,487.27,649.14,489.58,655.56Z" transform="translate(-121.3 -129.97)" style="fill:#efa561"/><path d="M772.93,667.45c-1.63,6.1-8.77,10.5-15.63,9.65a15.52,15.52,0,0,1-13.11-14.61c-.19-8.66,5-15.09,13.4-16.41,6.25-1,13.43,3.45,15.32,9.53-1.77.37-3.11.32-4.41-1.46a11.41,11.41,0,0,0-17.11-1.61,12.21,12.21,0,0,0-.1,18,11.3,11.3,0,0,0,17.09-1.38C769.69,667.46,771,666.84,772.93,667.45Z" transform="translate(-121.3 -129.97)" style="fill:#efa561"/><path d="M345.43,661.31c0-4.33.05-8.66,0-13,0-1.47.45-1.94,1.92-1.92,4.76.08,9.53.05,14.29,0,1.13,0,1.76.21,1.75,1.55s-.56,1.61-1.72,1.59c-3.73,0-7.45.05-11.17,0-1.5,0-2,.49-1.9,1.94.1,2.25.09,4.5,0,6.75-.05,1.37.44,1.81,1.79,1.78,3.55-.07,7.1,0,10.65,0,1.05,0,2.06-.18,2.1,1.48s-1,1.65-2.19,1.64c-3.47,0-6.93,0-10.4,0-1.41,0-2.06.34-1.95,1.87.2,2.75-1.07,6.24.48,8.06s5.05.42,7.7.57c1.64.09,3.29.06,4.93,0,1.24,0,1.68.45,1.68,1.68s-.66,1.39-1.65,1.38c-4.85,0-9.7,0-14.55,0-1.39,0-1.77-.5-1.76-1.82C345.46,670.32,345.43,665.82,345.43,661.31Z" transform="translate(-121.3 -129.97)" style="fill:#efa661"/><path d="M405.75,668.25c1.89,0,2.36-.63,2.24-2.4a10.21,10.21,0,0,0-7.75-9c-5.4-1.05-10.1,1.36-12.06,6.18a10.16,10.16,0,0,0,3.55,12c5.42,3.84,13.35,1.7,14.93-4a5.26,5.26,0,0,0-4.73,1.2c-4.08,3.3-10.49.57-10.69-4C396.08,668.2,400.92,668.13,405.75,668.25Zm-12.75-3c-2,.09-2-.77-1.07-2.13a6.63,6.63,0,0,1,6.32-3.24c2.61.15,4.28,1.62,5.58,3.69.72,1.15.47,1.72-1,1.67-1.73,0-3.46,0-5.18,0C396.11,665.24,394.55,665.19,393,665.26Z" transform="translate(-121.3 -129.97)" style="fill:#efa561"/><path d="M560.68,668.18c4.25.08,8.51-.06,12.75.07,1.92,0,2.33-.69,2.25-2.43-.27-6-6.12-10.2-12.67-9-4.27.81-7.69,5.16-7.74,9.84,0,5.29,3.34,9.14,8.83,10.24,4.1.82,9.72-2.22,10.44-5.92-1.72-.16-3.18-.23-4.73,1.13a6.94,6.94,0,0,1-10.35-1.84C558.59,668.78,558.79,668.15,560.68,668.18Zm-1.32-4.48c1.39-2.41,3.31-3.89,6.26-3.82a6.84,6.84,0,0,1,6,3.77c.74,1.27.26,1.66-1.07,1.61-1.72-.06-3.45,0-5.17,0s-3.46,0-5.18,0C558.87,665.29,558.78,664.7,559.36,663.7Z" transform="translate(-121.3 -129.97)" style="fill:#efa561"/><path d="M694.25,674.15c0-5.11,0-10.22,0-15.33,0-.65.27-1.51-.63-1.78-.73-.22-1.75-.43-2.21.16s-.4,1.54-.58,2.35c-5.45-3.83-10.12-3.8-13.74,0a10.81,10.81,0,0,0-.5,14.06,9.12,9.12,0,0,0,5.66,3.4c3.28.58,6.06-.71,8.7-3.07,0,1.65,0,2.91,2,2.68S694.24,675.09,694.25,674.15Zm-10.1-.19a7.21,7.21,0,0,1-6.64-7,6.77,6.77,0,1,1,13.53,0C691,670.69,687.71,674.06,684.15,674Z" transform="translate(-121.3 -129.97)" style="fill:#efa561"/><path d="M786.75,656.57a10.09,10.09,0,0,0-10.29,9.8,10.2,10.2,0,1,0,20.38.72A10,10,0,0,0,786.75,656.57Zm.08,17.07a6.87,6.87,0,1,1-.47-13.74,6.88,6.88,0,1,1,.47,13.74Z" transform="translate(-121.3 -129.97)" style="fill:#efa561"/><path d="M637.54,656.53a10.26,10.26,0,0,0,.08,20.52,10.26,10.26,0,0,0-.08-20.52Zm.1,17.11a6.88,6.88,0,1,1-.13-13.75,7.11,7.11,0,0,1,7.09,6.82A7,7,0,0,1,637.64,673.64Z" transform="translate(-121.3 -129.97)" style="fill:#efa561"/><path d="M503.43,656.54a10.05,10.05,0,0,0-10.21,10.15,10.16,10.16,0,0,0,10.27,10.36,10.26,10.26,0,0,0-.06-20.51Zm-.06,17.19a7,7,0,0,1-7-6.91,7,7,0,0,1,14-.22A7.07,7.07,0,0,1,503.37,673.73Z" transform="translate(-121.3 -129.97)" style="fill:#efa561"/><path d="M721.57,669.89,726,659.7l.69-1.68c.71-1.69,2.31-1.34,3.34-.95,1.2.45,0,1.47-.24,2.12-3.88,9-7.88,17.89-11.71,26.88-1,2.37-2.7,1.48-4.68,1.49,1.9-4.15,3.61-8.11,5.54-12a4.21,4.21,0,0,0-.1-4.33c-2.06-3.9-4-7.87-5.91-11.84-.35-.73-1.57-1.81-.42-2.33s2.72-.71,3.51,1.08c1.08,2.45,2.27,4.85,3.43,7.27C720,666.78,720.69,668.09,721.57,669.89Z" transform="translate(-121.3 -129.97)" style="fill:#efa662"/><path d="M598.79,664a3.65,3.65,0,0,1-4.4-1.49,6.16,6.16,0,0,0-9.37-.6,6.79,6.79,0,0,0-.29,9.76,6.39,6.39,0,0,0,9.44,0c.37-.36.62-.9,1.05-1.12a3.09,3.09,0,0,1,3.2,0c.69.57-.28,1.55-.73,2.22a10,10,0,0,1-11.88,3.72c-4.66-1.9-7.09-6.62-6.12-11.89a9.8,9.8,0,0,1,9.42-7.75C594.19,656.77,597.83,659.44,598.79,664Z" transform="translate(-121.3 -129.97)" style="fill:#efa561"/><path d="M522.14,659.86c2-2.16,3.94-3.27,6.63-3.1,3.79.24,6.52,2.63,6.67,6.52s0,7.8.07,11.69c0,1.22-.37,1.67-1.63,1.68s-1.6-.56-1.58-1.72c0-3.29,0-6.59,0-9.88,0-2.18-.32-4.27-2.78-5-2.23-.67-4.89.63-6.17,2.85a12.15,12.15,0,0,0-1.32,5.76c-.07,1.91,0,3.81,0,5.72,0,1.07.35,2.27-1.53,2.29s-1.64-1-1.64-2.19c0-5,0-10.05,0-15.08,0-1.1-.51-2.49,1.58-2.51S521.88,658.34,522.14,659.86Z" transform="translate(-121.3 -129.97)" style="fill:#efa663"/><path d="M656.35,659.86c2.52-3.25,5.44-3.46,8.43-2.87,2.8.56,4.76,3.45,4.85,6.94.09,3.64,0,7.28,0,10.92,0,1.09-.14,1.77-1.51,1.8s-1.73-.64-1.71-1.88q.09-4.56,0-9.1c-.06-3.74-1.05-5.41-3.26-5.7-3-.39-5.57,1.47-6.5,4.75s-.43,6.37-.53,9.56c0,1.2.29,2.44-1.72,2.37S653,675.3,653,674.29c0-4.94,0-9.88,0-14.82,0-.94-.67-2.3,1.23-2.58S656.16,658,656.35,659.86Z" transform="translate(-121.3 -129.97)" style="fill:#efa561"/><path d="M416.19,659.77c2.07-1.86,3.75-3,6.12-3,4.36.09,7.11,2.31,7.36,6.67.23,3.88,0,7.79.09,11.69,0,1.13-.45,1.49-1.54,1.51s-1.7-.38-1.68-1.64c.06-3.2.07-6.41,0-9.62-.09-3.55-1.11-5.14-3.28-5.41a5.91,5.91,0,0,0-6.35,4.27c-1.08,3.38-.54,6.88-.66,10.33,0,1,.2,2-1.48,2.09s-1.71-.91-1.7-2.13c0-4.94,0-9.88.05-14.82,0-1-.84-2.54,1.24-2.81C416.27,656.66,416.44,657.84,416.19,659.77Z" transform="translate(-121.3 -129.97)" style="fill:#efa661"/><path d="M543.7,668.28c0-2.08-.08-4.16,0-6.24.09-1.57-.41-2.24-2-2.07-1,.12-2.06.19-2.06-1.48s.89-1.71,2-1.55c1.88.25,2.16-.75,2.09-2.3-.09-1.9-.08-3.81,0-5.72.17-4.06,3.34-6.42,7.31-5.62,1.18.23,1,1,1,1.71.08,1-.31,1.32-1.31,1.44-3.88.44-3.87.49-3.89,4.33v2.08c0,3.74,0,3.78,3.65,4,1.07.08,1.55.35,1.58,1.5s-.52,1.57-1.69,1.63c-3.54.17-3.54.22-3.54,3.88s0,7.29,0,10.93c0,1.06-.07,1.8-1.48,1.82s-1.75-.6-1.71-1.87C543.76,672.62,543.71,670.45,543.7,668.28Z" transform="translate(-121.3 -129.97)" style="fill:#efa561"/><path d="M376.19,671.23c1.72-4.43,3.19-8.19,4.66-12a9.86,9.86,0,0,1,.71-1.67c.71-1.12,1.9-.77,2.84-.58,1.15.22.43,1.1.2,1.64-2.69,6.46-5.41,12.89-8.18,19.46-1.15-.66-1.21-1.79-1.59-2.67-2.28-5.33-4.55-10.67-6.73-16-.3-.72-1.53-1.83-.14-2.36,1.22-.47,2.64-.46,3.27,1.46,1,3,2.23,5.82,3.37,8.71C375,668.35,375.49,669.47,376.19,671.23Z" transform="translate(-121.3 -129.97)" style="fill:#efa662"/><path d="M438.06,668.19V664.3c0-3.82,0-3.86-3.64-4.28-1-.11-1.37-.45-1.36-1.43s.26-1.71,1.44-1.67c.43,0,.87,0,1.3,0,1.85.27,2.47-.56,2.28-2.34-.12-1.11,0-2.25,0-3.37s.32-1.7,1.6-1.7,1.68.53,1.59,1.7c-.06.69.07,1.4,0,2.08-.38,2.58.21,4.2,3.31,3.64,1.09-.2,1.53.39,1.53,1.5s-.33,1.77-1.46,1.53c-3.46-.73-3.48,1.34-3.39,3.83.12,3.63,0,7.26,0,10.9,0,1.15-.05,2-1.6,2s-1.61-.85-1.59-2C438.08,672.51,438.06,670.35,438.06,668.19Z" transform="translate(-121.3 -129.97)" style="fill:#efa662"/><path d="M606.21,668.11c0-2-.1-4,0-6,.12-1.73-.51-2.27-2.21-2.18-1,0-2.58.76-2.62-1.4s1.61-1.63,2.73-1.59c1.54,0,2.26-.39,2.09-2-.11-1.11,0-2.25,0-3.38s-.11-2,1.53-2,1.74.69,1.66,1.91c-.06.77.08,1.57,0,2.33-.35,2.38.34,3.65,3,3.19,1.06-.19,1.81.12,1.82,1.49s-.6,1.77-1.73,1.54c-2.9-.56-3.24,1-3.13,3.34.17,3.64.06,7.29,0,10.93,0,1.14.41,2.46-1.65,2.42-1.9,0-1.49-1.25-1.51-2.3C606.19,672.28,606.21,670.2,606.21,668.11Z" transform="translate(-121.3 -129.97)" style="fill:#efa661"/><path d="M704.19,659.64c1.74-2.46,3.78-3.52,6.08-2.62,1.39.55.43,2.3.68,3.73-1.67-.1-3.33-.9-4.66.49a7.94,7.94,0,0,0-2.22,5.63c0,2.5,0,5,0,7.51,0,1.07.33,2.26-1.54,2.28s-1.64-1-1.64-2.18c0-5.1,0-10.19,0-15.29,0-1.07-.33-2.25,1.52-2.32S704,658,704.19,659.64Z" transform="translate(-121.3 -129.97)" style="fill:#efa662"/><path d="M618.7,666.77c0-2.68,0-5.37,0-8.06,0-1.07.11-1.8,1.51-1.82s1.77.55,1.76,1.85c-.05,5.37,0,10.75,0,16.12,0,1.1-.14,1.78-1.52,1.79s-1.79-.49-1.75-1.82C618.76,672.15,618.7,669.46,618.7,666.77Z" transform="translate(-121.3 -129.97)" style="fill:#efa663"/><path d="M622.35,651.72c-.1,1.27-.71,2-2,2a1.78,1.78,0,0,1-2.08-1.78,2,2,0,0,1,4-.22Z" transform="translate(-121.3 -129.97)" style="fill:#efa764"/></g></g></svg>